<?xml version="1.0" encoding="UTF-8" standalone="no"?>
<svg
   xmlns:dc="http://purl.org/dc/elements/1.1/"
   xmlns:cc="http://creativecommons.org/ns#"
   xmlns:rdf="http://www.w3.org/1999/02/22-rdf-syntax-ns#"
   xmlns:svg="http://www.w3.org/2000/svg"
   xmlns="http://www.w3.org/2000/svg"
   xmlns:sodipodi="http://sodipodi.sourceforge.net/DTD/sodipodi-0.dtd"
   xmlns:inkscape="http://www.inkscape.org/namespaces/inkscape"
   version="1.1"
   id="Ebene_1"
   x="0px"
   y="0px"
   viewBox="0 0 15 23"
   sodipodi:docname="pin.svg"
   inkscape:version="0.92.5 (2060ec1f9f, 2020-04-08)"
   width="15"
   height="23">
  <metadata
     id="metadata190">
    <rdf:RDF>
      <cc:Work
         rdf:about="">
        <dc:format>image/svg+xml</dc:format>
        <dc:type
           rdf:resource="http://purl.org/dc/dcmitype/StillImage" />
        <dc:title></dc:title>
      </cc:Work>
    </rdf:RDF>
  </metadata>
  <defs
     id="defs188" />
  <sodipodi:namedview
     pagecolor="#ffffff"
     bordercolor="#666666"
     borderopacity="1"
     objecttolerance="10"
     gridtolerance="10"
     guidetolerance="10"
     inkscape:pageopacity="0"
     inkscape:pageshadow="2"
     inkscape:window-width="868"
     inkscape:window-height="403"
     id="namedview186"
     showgrid="false"
     inkscape:zoom="2.2018182"
     inkscape:cx="23.349541"
     inkscape:cy="50.666391"
     inkscape:window-x="26"
     inkscape:window-y="26"
     inkscape:window-maximized="0"
     inkscape:current-layer="Ebene_1" />
  <style
     type="text/css"
     id="style101"> .st0{fill:#E5E5E5;stroke:#000000;stroke-width:2;stroke-linecap:round;stroke-linejoin:round;} .st1{opacity:0.6;fill:#FFFFFF;} .st2{fill:none;stroke:#000000;stroke-width:2;stroke-linecap:round;stroke-linejoin:round;} .st3{fill:#64AE24;stroke:#000000;stroke-width:2;stroke-linecap:round;stroke-linejoin:round;} .st4{fill:#639B2D;} .st5{opacity:0.2;fill:#FFFFFF;} .st6{fill:#639B2D;stroke:#000000;stroke-width:2;stroke-linecap:round;stroke-linejoin:round;} .st7{fill:#E32322;stroke:#000000;stroke-width:2;stroke-linecap:round;stroke-linejoin:round;} .st8{fill:#BA3131;} .st9{fill:#BA3131;stroke:#000000;stroke-width:2;stroke-linecap:round;stroke-linejoin:round;} .st10{fill:#8D4691;stroke:#000000;stroke-width:2;stroke-linecap:round;stroke-linejoin:round;} .st11{fill:#693B6D;} .st12{fill:#693B6D;stroke:#000000;stroke-width:2;stroke-linecap:round;stroke-linejoin:round;} .st13{fill:#F3E50D;stroke:#000000;stroke-width:2;stroke-linecap:round;stroke-linejoin:round;} .st14{fill:#DDCA17;} .st15{fill:#DDCA17;stroke:#000000;stroke-width:2;stroke-linecap:round;stroke-linejoin:round;} </style>
  <g
     id="g183"
     transform="matrix(0.15964764,0,0,0.15964764,-69.210988,-2.3649398)">
    <path
       class="st0"
       d="m 462,107.8 c 1.4,-1.4 4.8,8.7 4.8,8.7 -7.6,20.4 -24.9,43.8 -24.9,43.8 3.1,-14.3 14,-39.4 16.7,-45.7 0.4,-0.9 0.6,-1.5 0.6,-1.5 z"
       id="path165"
       inkscape:connector-curvature="0"
       style="fill:#e5e5e5;stroke:#000000;stroke-width:2;stroke-linecap:round;stroke-linejoin:round" />
    <path
       class="st1"
       d="m 462,107.8 -0.3,0.5 c -0.3,10 -3.6,28.4 -19.8,52 0,0 17.3,-23.4 24.9,-43.8 0,0 -3.4,-10.1 -4.8,-8.7 z"
       id="path167"
       inkscape:connector-curvature="0"
       style="opacity:0.6;fill:#ffffff" />
    <path
       class="st2"
       d="m 462,107.8 c 1.4,-1.4 4.8,8.7 4.8,8.7 -7.6,20.4 -24.9,43.8 -24.9,43.8 3.1,-14.3 14,-39.4 16.7,-45.7 0.4,-0.9 0.6,-1.5 0.6,-1.5 z"
       id="path169"
       inkscape:connector-curvature="0"
       style="fill:none;stroke:#000000;stroke-width:2;stroke-linecap:round;stroke-linejoin:round" />
    <path
       class="st13"
       d="m 514.1,54.3 v -14 l -28.9,-7.3 -9.4,3 -17.3,35.4 v 0 c -10.4,0.6 -18.8,4.7 -21.5,10.5 -4.4,9.8 7.3,24.6 26.1,33 18.8,8.5 37.6,7.4 42,-2.4 2.7,-6.1 0,-15.5 -7,-23.9 v 0 z"
       id="path171"
       inkscape:connector-curvature="0"
       style="fill:#f3e50d;stroke:#000000;stroke-width:2;stroke-linecap:round;stroke-linejoin:round" />
    <path
       class="st14"
       d="m 492,52.8 c -1.6,-0.7 -3.1,-1.5 -4.6,-2.3 L 477,72.3 c 0,0 0,0 0,0 -4.1,8.7 -12.9,1.6 -12.9,1.6 2.6,4.9 12.7,11.1 12.7,11.1 v 0 c 4.9,3.4 13.5,7.1 21.4,3.6 l 13.9,-30 C 506,58.4 499,56 492,52.8 Z"
       id="path173"
       inkscape:connector-curvature="0"
       style="fill:#ddca17" />
    <path
       class="st2"
       d="m 514.1,54.3 v -14 l -28.9,-7.3 -9.4,3 -17.3,35.4 v 0 c -10.4,0.6 -18.8,4.7 -21.5,10.5 -4.4,9.8 7.3,24.6 26.1,33 18.8,8.5 37.6,7.4 42,-2.4 2.7,-6.1 0,-15.5 -7,-23.9 v 0 z"
       id="path175"
       inkscape:connector-curvature="0"
       style="fill:none;stroke:#000000;stroke-width:2;stroke-linecap:round;stroke-linejoin:round" />
    <ellipse
       transform="matrix(0.4103,-0.9119,0.9119,0.4103,262.2253,477.3002)"
       class="st13"
       cx="500.20001"
       cy="35.900002"
       rx="13.6"
       ry="29.9"
       id="ellipse177"
       style="fill:#f3e50d;stroke:#000000;stroke-width:2;stroke-linecap:round;stroke-linejoin:round" />
    <path
       class="st5"
       d="m 505.8,23.4 c -4,-1.8 -8,-3.1 -11.8,-4 -2.4,0.9 -4.1,2.2 -5,4.1 -3.1,6.9 6.6,17.9 21.7,24.7 4,1.8 8,3.1 11.8,4 2.4,-0.9 4.1,-2.2 5,-4.1 3,-6.8 -6.7,-17.9 -21.7,-24.7 z"
       id="path179"
       inkscape:connector-curvature="0"
       style="opacity:0.2;fill:#ffffff" />
    <path
       class="st15"
       d="m 494.6,48.3 c -12.7,-5.7 -21.4,-16.5 -21.9,-23.5 -0.1,0.1 0,0 -0.1,0.1 -5.7,9.6 4.3,21.1 19.4,27.8 15,6.8 30.2,10.2 35,-3.7 0.4,-1.2 0.1,1.3 0,0 -3.6,6.9 -17.6,6 -32.4,-0.7 z"
       id="path181"
       inkscape:connector-curvature="0"
       style="fill:#ddca17;stroke:#000000;stroke-width:2;stroke-linecap:round;stroke-linejoin:round" />
  </g>
</svg>
